<svg width="129" height="109" viewBox="0 0 129 109" fill="none" xmlns="http://www.w3.org/2000/svg">
<path d="M108.417 49.7968H125.549C125.36 48.9348 124.7 48.2614 123.852 48.0459C123.906 47.8574 123.919 47.6554 123.919 47.4534C123.919 46.12 122.842 45.0291 121.495 45.0291C121.118 45.0291 120.754 45.1234 120.431 45.2716C119.919 44.1403 118.774 43.3456 117.454 43.3456C116.04 43.3456 114.842 44.2345 114.384 45.487C113.98 45.2177 113.508 45.0695 112.983 45.0695C111.582 45.0695 110.438 46.2143 110.438 47.615C110.438 47.7362 110.451 47.8574 110.465 47.9786C109.454 48.0863 108.633 48.8271 108.417 49.7968Z" fill="#EAEAEA"/>
<path d="M8.0144 56.7462H26.1152C25.9132 55.8439 25.2129 55.1166 24.324 54.9011C24.3779 54.6991 24.4048 54.4971 24.4048 54.2681C24.4048 52.854 23.26 51.7092 21.8459 51.7092C21.4419 51.7092 21.0648 51.8035 20.7281 51.9651C20.1894 50.7665 18.9773 49.9315 17.5766 49.9315C16.0817 49.9315 14.8157 50.8742 14.3308 52.1941C13.9133 51.9112 13.4016 51.7496 12.8494 51.7496C11.3679 51.7496 10.1558 52.9483 10.1558 54.4432C10.1558 54.5779 10.1693 54.6991 10.1827 54.8203C9.11877 54.928 8.24336 55.7092 8.0144 56.7462Z" fill="#EAEAEA"/>
<path d="M106.209 8.19447H127.757C127.515 7.11704 126.68 6.25509 125.616 5.99921C125.67 5.75678 125.71 5.51436 125.71 5.25847C125.71 3.57499 124.35 2.21474 122.666 2.21474C122.182 2.21474 121.737 2.32248 121.333 2.5245C120.687 1.0969 119.246 0.100281 117.589 0.100281C115.811 0.100281 114.303 1.21811 113.724 2.79385C113.225 2.45716 112.619 2.26861 111.973 2.26861C110.209 2.26861 108.768 3.70967 108.768 5.47396C108.768 5.62211 108.781 5.78372 108.794 5.93187C107.515 6.02614 106.478 6.96889 106.209 8.19447Z" fill="#EAEAEA"/>
<path d="M0.0817871 19.0227H19.718C19.5025 18.0395 18.7483 17.2584 17.7651 17.016C17.819 16.8005 17.8459 16.5715 17.8459 16.3426C17.8459 14.8072 16.6069 13.5682 15.0715 13.5682C14.6406 13.5682 14.2231 13.6625 13.8594 13.851C13.2668 12.5581 11.9605 11.6558 10.4521 11.6558C8.83591 11.6558 7.46218 12.6793 6.93694 14.1069C6.47903 13.8106 5.92685 13.6355 5.33426 13.6355C3.71811 13.6355 2.41173 14.9419 2.41173 16.5581C2.41173 16.6927 2.4252 16.8409 2.43867 16.9756C1.28043 17.0564 0.337677 17.9048 0.0817871 19.0227Z" fill="#EAEAEA"/>
<path d="M2.00769 103.79H17.0782C16.9166 103.035 16.324 102.443 15.5833 102.254C15.6237 102.093 15.6507 101.917 15.6507 101.729C15.6507 100.557 14.6944 99.601 13.5227 99.601C13.186 99.601 12.8763 99.6818 12.5934 99.8165C12.1355 98.8199 11.1389 98.133 9.96721 98.133C8.72816 98.133 7.67767 98.9141 7.27363 100.019C6.92347 99.7895 6.50596 99.6549 6.04805 99.6549C4.80901 99.6549 3.81239 100.651 3.81239 101.891C3.81239 101.998 3.82585 102.106 3.83932 102.214C2.92351 102.281 2.19624 102.941 2.00769 103.79Z" fill="#EAEAEA"/>
<path d="M113.737 99.3047H128.808C128.646 98.5505 128.054 97.9579 127.313 97.7693C127.353 97.6077 127.38 97.4326 127.38 97.2441C127.38 96.0724 126.424 95.1162 125.252 95.1162C124.916 95.1162 124.606 95.197 124.323 95.3317C123.865 94.3351 122.869 93.6482 121.697 93.6482C120.458 93.6482 119.407 94.4293 119.003 95.5337C118.653 95.3047 118.236 95.1701 117.778 95.1701C116.539 95.1701 115.542 96.1667 115.542 97.4057C115.542 97.5134 115.555 97.6212 115.569 97.7289C114.653 97.7828 113.926 98.4427 113.737 99.3047Z" fill="#EAEAEA"/>
<path d="M66.1688 103.911C65.0241 104.651 63.3945 104.651 62.2497 103.911L44.8357 92.6516L32.2163 84.4901C29.9537 83.0355 31.2601 80.1265 34.1692 80.1265H64.2025H94.2359C97.145 80.1265 98.4513 83.0221 96.1887 84.4901L83.5693 92.6516L66.1688 103.911Z" fill="#D67412"/>
<path d="M55.6775 103.385C55.462 103.641 55.1253 103.641 54.9098 103.385L48.2701 95.4124L42.1826 88.1129C41.8459 87.6954 42.0749 86.9951 42.5597 86.9951H55.3004H68.041C68.5258 86.9951 68.7683 87.7088 68.4181 88.1129L62.3306 95.4124L55.6775 103.385Z" fill="#FC842C"/>
<path d="M72.1755 103.897C71.9466 104.18 71.5695 104.18 71.3405 103.897L64.014 95.1162L57.307 87.0624C56.9299 86.6045 57.1992 85.8234 57.7245 85.8234H71.758H85.7915C86.3303 85.8234 86.5861 86.6045 86.209 87.0624L79.502 95.1162L72.1755 103.897Z" fill="#FC842C"/>
<path d="M64.0814 108.557C63.8928 108.786 63.5965 108.786 63.408 108.557L57.5225 101.5L52.1219 95.0353C51.8122 94.6717 52.0276 94.0387 52.4586 94.0387H63.7447H75.0308C75.4617 94.0387 75.6772 94.6717 75.3675 95.0353L69.9669 101.5L64.0814 108.557Z" fill="#FC842C"/>
<path d="M77.0779 88.5842H73.8591C73.482 88.5842 73.1722 88.2341 73.1722 87.8031C73.1722 87.3721 73.482 87.022 73.8591 87.022H77.0779C77.455 87.022 77.7648 87.3721 77.7648 87.8031C77.7648 88.2475 77.455 88.5842 77.0779 88.5842Z" fill="#F99943"/>
<path d="M79.2193 88.5842H78.7614C78.3843 88.5842 78.0746 88.2341 78.0746 87.8031C78.0746 87.3721 78.3843 87.022 78.7614 87.022H79.2193C79.5964 87.022 79.9062 87.3721 79.9062 87.8031C79.9062 88.2475 79.5964 88.5842 79.2193 88.5842Z" fill="#F99943"/>
<path d="M63.5158 91.0489H59.7179C59.2734 91.0489 58.9098 90.6448 58.9098 90.133C58.9098 89.6213 59.2734 89.2172 59.7179 89.2172H63.5158C63.9602 89.2172 64.3239 89.6213 64.3239 90.133C64.3239 90.6448 63.9602 91.0489 63.5158 91.0489Z" fill="#F99943"/>
<path d="M66.0477 91.0489H65.509C65.0646 91.0489 64.7009 90.6448 64.7009 90.133C64.7009 89.6213 65.0646 89.2172 65.509 89.2172H66.0477C66.4922 89.2172 66.8558 89.6213 66.8558 90.133C66.8558 90.6448 66.4922 91.0489 66.0477 91.0489Z" fill="#F99943"/>
<path d="M64.0275 103.305H61.8322C61.5763 103.305 61.3608 103.062 61.3608 102.779C61.3608 102.483 61.5763 102.254 61.8322 102.254H64.0275C64.2834 102.254 64.4989 102.497 64.4989 102.779C64.4989 103.062 64.2834 103.305 64.0275 103.305Z" fill="#F99943"/>
<path d="M65.4821 103.305H65.1723C64.9164 103.305 64.7009 103.062 64.7009 102.779C64.7009 102.483 64.9164 102.254 65.1723 102.254H65.4821C65.7379 102.254 65.9534 102.497 65.9534 102.779C65.9534 103.062 65.7514 103.305 65.4821 103.305Z" fill="#F99943"/>
<path d="M52.5664 90.2677C52.5664 90.9142 52.1085 91.4259 51.5294 91.4259H48.4048C47.8392 91.4259 47.3678 90.9007 47.3678 90.2677C47.3678 89.6212 47.8257 89.1094 48.4048 89.1094H51.5294C52.1085 89.1094 52.5664 89.6212 52.5664 90.2677Z" fill="#F99943"/>
<path d="M54.8962 91.9377C54.8962 92.5842 54.4383 93.0959 53.8592 93.0959H50.7347C50.169 93.0959 49.6976 92.5707 49.6976 91.9377C49.6976 91.2912 50.1555 90.7794 50.7347 90.7794H53.8592C54.4383 90.7794 54.8962 91.2912 54.8962 91.9377Z" fill="#F99943"/>
<path d="M72.903 92.8669C72.903 92.3686 72.5393 91.9511 72.0949 91.9511H69.6302C69.1858 91.9511 68.8221 92.3552 68.8221 92.8669C68.8221 93.3653 69.1858 93.7828 69.6302 93.7828H72.0949C72.5393 93.7828 72.903 93.3787 72.903 92.8669Z" fill="#F99943"/>
<path d="M74.7345 91.5472C74.7345 91.0488 74.3708 90.6313 73.9264 90.6313H71.4753C71.0309 90.6313 70.6672 91.0354 70.6672 91.5472C70.6672 92.0455 71.0309 92.463 71.4753 92.463H73.9264C74.3708 92.463 74.7345 92.0589 74.7345 91.5472Z" fill="#F99943"/>
<path d="M73.7379 96.0185C73.1992 96.0185 72.7548 96.5168 72.7548 97.1229C72.7548 97.298 72.7952 97.4596 72.8625 97.6077H72.2161C71.6773 97.6077 71.2329 98.106 71.2329 98.7121C71.2329 99.3316 71.6773 99.8164 72.2161 99.8164H75.5426L78.7345 95.9916H73.7379V96.0185Z" fill="#F99943"/>
<path d="M54.6539 96.8131H54.0074C54.0747 96.6649 54.1152 96.5033 54.1152 96.3282C54.1152 95.7087 53.6707 95.2239 53.132 95.2239H48.1219L48.2836 95.4259L51.3004 99.0488H54.6539C55.1926 99.0488 55.637 98.5504 55.637 97.9444C55.637 97.3114 55.1926 96.8131 54.6539 96.8131Z" fill="#F99943"/>
<path d="M64.9569 95.4259C64.9569 96.005 64.5393 96.4629 64.0276 96.4629H59.7179C59.2061 96.4629 58.7886 95.9915 58.7886 95.4259C58.7886 94.8467 59.2061 94.3888 59.7179 94.3888H64.0276C64.5528 94.3888 64.9569 94.8467 64.9569 95.4259Z" fill="#F99943"/>
<path d="M63.2599 97.069C63.2599 96.7323 63.5023 96.463 63.7986 96.463H61.7515C62.0478 96.463 62.2902 96.7323 62.2902 97.069C62.2902 97.4057 62.0478 97.675 61.7515 97.675H63.7851C63.4888 97.675 63.2599 97.4057 63.2599 97.069Z" fill="#F99943"/>
<path d="M66.9366 98.5908C66.9366 99.1026 66.573 99.5066 66.1286 99.5066H61.0243C60.5798 99.5066 60.2162 99.1026 60.2162 98.5908C60.2162 98.079 60.5798 97.675 61.0243 97.675H66.1286C66.573 97.675 66.9366 98.0925 66.9366 98.5908Z" fill="#F99943"/>
<path d="M101.791 73.6214C101.67 73.4059 101.468 73.2712 101.239 73.2712H27.1794C26.9504 73.2712 26.7484 73.4059 26.6272 73.6214C26.506 73.8369 26.506 74.1063 26.6137 74.3352L31.4487 84.49C31.5565 84.7324 31.7854 84.8671 32.0144 84.8671H96.4177C96.6602 84.8671 96.8757 84.7189 96.9834 84.49L101.818 74.3352C101.913 74.1063 101.899 73.8369 101.791 73.6214Z" fill="#BC5800"/>
<path d="M44.0546 82.8334H37.8055C37.0648 82.8334 36.4722 82.1601 36.4722 81.325C36.4722 80.49 37.0648 79.8167 37.8055 79.8167H44.0546C44.7953 79.8167 45.3879 80.49 45.3879 81.325C45.3879 82.1601 44.7953 82.8334 44.0546 82.8334Z" fill="#AA5000"/>
<path d="M48.2162 82.8334H47.3273C46.5866 82.8334 45.994 82.1601 45.994 81.325C45.994 80.49 46.5866 79.8167 47.3273 79.8167H48.2162C48.957 79.8167 49.5496 80.49 49.5496 81.325C49.5496 82.1601 48.957 82.8334 48.2162 82.8334Z" fill="#AA5000"/>
<path d="M83.529 79.9514H89.2394C89.9128 79.9514 90.4649 80.5709 90.4649 81.3251C90.4649 82.0793 89.9128 82.6988 89.2394 82.6988H83.529C82.8556 82.6988 82.3035 82.0793 82.3035 81.3251C82.3035 80.5709 82.8556 79.9514 83.529 79.9514Z" fill="#AA5000"/>
<path d="M79.7177 79.9514H80.5392C81.2126 79.9514 81.7648 80.5709 81.7648 81.3251C81.7648 82.0793 81.2126 82.6988 80.5392 82.6988H79.7177C79.0443 82.6988 78.4921 82.0793 78.4921 81.3251C78.4921 80.5709 79.0443 79.9514 79.7177 79.9514Z" fill="#AA5000"/>
<path d="M66.1958 80.3284C66.1958 81.15 65.6032 81.8234 64.8759 81.8234H61.1723C60.445 81.8234 59.8524 81.15 59.8524 80.3284C59.8524 79.5068 60.445 78.8334 61.1723 78.8334H64.8625C65.6032 78.8334 66.1958 79.4934 66.1958 80.3284Z" fill="#AA5000"/>
<path d="M69.7783 81.9715C69.7783 82.82 69.1587 83.5203 68.4045 83.5203H64.6201C63.8659 83.5203 63.2463 82.8335 63.2463 81.9715C63.2463 81.123 63.8659 80.4227 64.6201 80.4227H68.4045C69.1587 80.4227 69.7783 81.123 69.7783 81.9715Z" fill="#AA5000"/>
<path d="M102.074 77.2173C102.074 77.5271 101.859 77.7695 101.576 77.7695H25.9942C25.7248 77.7695 25.4958 77.5271 25.4958 77.2173V71.0087C25.4958 70.6989 25.7113 70.4565 25.9942 70.4565H101.576C101.845 70.4565 102.074 70.6989 102.074 71.0087V77.2173V77.2173Z" fill="#DFDFDF"/>
<path d="M101.576 70.4565H101.064V76.1938C101.064 76.5036 100.849 76.746 100.566 76.746H25.4958V77.2173C25.4958 77.5271 25.7113 77.7695 25.9942 77.7695H101.576C101.845 77.7695 102.074 77.5271 102.074 77.2173V71.0087C102.074 70.6989 101.845 70.4565 101.576 70.4565Z" fill="#C3C3C3"/>
<path d="M32.7147 73.7157H29.2131C28.7956 73.7157 28.4589 73.3386 28.4589 72.8672C28.4589 72.3958 28.7956 72.0187 29.2131 72.0187H32.7147C33.1322 72.0187 33.4689 72.3958 33.4689 72.8672C33.4689 73.3386 33.1187 73.7157 32.7147 73.7157Z" fill="white"/>
<path d="M35.0445 73.7157H34.5462C34.1287 73.7157 33.792 73.3386 33.792 72.8672C33.792 72.3958 34.1287 72.0187 34.5462 72.0187H35.0445C35.462 72.0187 35.7987 72.3958 35.7987 72.8672C35.7987 73.3386 35.4486 73.7157 35.0445 73.7157Z" fill="white"/>
<path d="M67.1115 58.8606H60.62L60.4584 37.1908L66.9499 37.2043L67.1115 58.8606Z" fill="#00D7FF"/>
<path d="M63.7042 54.6452L53.0646 66.0794L74.5054 66.1198L63.7042 54.6452L53.0646 66.0794L74.5054 66.1198L63.7042 54.6452Z" fill="#00D7FF"/>
<path d="M49.307 37.8911C48.472 37.8373 28.9031 36.477 28.8089 22.0933C28.7819 18.4705 29.792 15.5345 31.8122 13.3527C36.4452 8.32914 44.7953 9.42004 45.1589 9.47391L44.7953 13.6624C44.7279 13.649 37.6303 12.7466 34.1556 16.5041C32.9031 17.8779 32.2971 19.696 32.3105 22.0933C32.3779 32.477 49.2935 33.6622 49.4552 33.6622L49.307 37.8911Z" fill="#00D7FF"/>
<path d="M78.4784 37.9316C79.3134 37.8777 98.8553 36.5848 98.761 22.2011C98.734 18.5782 97.6836 15.6288 95.6364 13.447C90.9362 8.40998 82.5996 9.47394 82.2359 9.51434L82.6534 13.7163C82.7208 13.7029 89.8049 12.814 93.3334 16.5984C94.6129 17.9722 95.2459 19.8038 95.2593 22.2011C95.3267 32.5848 78.438 33.7161 78.2764 33.7161L78.4784 37.9316Z" fill="#00D7FF"/>
<path d="M39.9334 2.18781C39.1927 2.18781 38.5732 2.78039 38.5462 3.52112C38.5193 4.31573 38.5193 5.1238 38.5193 5.93187C38.6809 29.972 50.1151 49.4735 64.0678 49.5004C78.0206 49.5274 89.1989 30.0528 89.0373 6.01268C89.0373 5.19114 89.0103 4.38307 88.9834 3.58846C88.9565 2.84773 88.3504 2.26861 87.6097 2.26861L39.9334 2.18781Z" fill="#00D7FF"/>
<path d="M47.9467 31.2784C47.3137 31.2784 46.7076 30.9148 46.4383 30.2953C44.243 25.2448 42.9097 19.3055 42.573 13.0968C42.5191 12.1944 43.2194 11.4133 44.1218 11.3729C45.0241 11.319 45.8053 12.0194 45.8457 12.9217C46.1554 18.7398 47.4079 24.3021 49.4416 29.0023C49.8052 29.8374 49.4146 30.807 48.5931 31.1572C48.3911 31.238 48.1756 31.2784 47.9467 31.2784Z" fill="white"/>
<path d="M44.1622 10.5244C44.1488 10.5244 44.1353 10.5244 44.1218 10.5244C43.2195 10.511 42.4922 9.75676 42.5192 8.85441C42.5326 8.3965 42.5461 7.93859 42.5596 7.44027C42.6 6.53792 43.3676 5.83759 44.27 5.86452C45.1723 5.90492 45.8727 6.6726 45.8457 7.57495C45.8188 8.04633 45.8053 8.4773 45.8053 8.90828C45.7784 9.81063 45.0511 10.5244 44.1622 10.5244Z" fill="white"/>
<path d="M52.3237 39.0898L52.4045 39.1302L57.7647 35.7632L58.6267 42.0393L58.7075 42.0662L66.6131 25.1101L60.2294 22.1472L52.3237 39.0898Z" fill="white"/>
<path d="M75.2461 39.0898L75.1653 39.1302L69.8051 35.7632L68.9431 42.0393L68.8623 42.0662L60.9567 25.1101L67.3404 22.1472L75.2461 39.0898Z" fill="white"/>
<path d="M71.8851 28.4347C76.3609 23.9589 76.3609 16.7021 71.8851 12.2263C67.4093 7.75049 60.1525 7.75049 55.6767 12.2263C51.2009 16.7021 51.2009 23.9589 55.6767 28.4347C60.1525 32.9105 67.4093 32.9105 71.8851 28.4347Z" fill="white"/>
<path d="M73.0914 20.3291C73.0914 25.4603 68.9298 29.6353 63.7851 29.6353C58.6538 29.6353 54.4788 25.4738 54.4788 20.3291C54.4788 15.1978 58.6403 11.0228 63.7851 11.0228C68.9163 11.0362 73.0914 15.1978 73.0914 20.3291Z" fill="#00D7FF"/>
<path d="M65.5359 26.0933H63.0039V17.6489H62.0342V15.9654C62.3978 15.9654 62.7076 15.8038 62.9635 15.494C63.2194 15.1843 63.3406 14.8745 63.3406 14.5648H65.5359V26.0933Z" fill="white"/>
<path d="M77.2528 70.2006C77.2528 70.3353 77.145 70.4565 77.0104 70.4565H50.5594C50.4248 70.4565 50.317 70.3487 50.317 70.2006V66.268C50.317 66.1333 50.4248 66.0121 50.5594 66.0121H77.0238C77.1585 66.0121 77.2662 66.1198 77.2662 66.268V70.2006H77.2528Z" fill="#00D7FF"/>
<path d="M73.0374 95.4259H92.9025C92.687 94.4293 91.9193 93.6481 90.9362 93.3922C90.99 93.1768 91.017 92.9478 91.017 92.7054C91.017 91.1566 89.7645 89.9041 88.2156 89.9041C87.7712 89.9041 87.3537 90.0118 86.9901 90.1869C86.3975 88.8671 85.0776 87.9647 83.5288 87.9647C81.8992 87.9647 80.4986 89.0017 79.9733 90.4428C79.5019 90.133 78.9498 89.958 78.3572 89.958C76.7276 89.958 75.4077 91.2778 75.4077 92.9074C75.4077 93.0555 75.4212 93.1902 75.4346 93.3249C74.2495 93.4326 73.2798 94.2946 73.0374 95.4259Z" fill="#EAEAEA"/>
<path d="M33.9265 92.5304H57.6165C57.3606 91.3452 56.4448 90.4025 55.2596 90.1062C55.327 89.8503 55.3674 89.5674 55.3674 89.2846C55.3674 87.4395 53.8724 85.9446 52.0273 85.9446C51.5021 85.9446 51.0038 86.0658 50.5593 86.2813C49.8455 84.719 48.2698 83.6281 46.4382 83.6281C44.4853 83.6281 42.8288 84.8537 42.1958 86.591C41.6436 86.2274 40.9837 86.0119 40.2699 86.0119C38.3305 86.0119 36.7548 87.5877 36.7548 89.527C36.7548 89.7021 36.7682 89.8637 36.7952 90.0254C35.381 90.1466 34.2228 91.1836 33.9265 92.5304Z" fill="#EAEAEA"/>
</svg>
