<svg width="22" height="17" viewBox="0 0 22 17" fill="none" xmlns="http://www.w3.org/2000/svg">
<path d="M18.2345 7.91511L6.86781 7.91511C6.32598 7.91511 5.88671 8.35438 5.88671 8.89621C5.88671 9.43804 6.32598 9.8773 6.86781 9.8773L18.2345 9.8773L16.966 11.1457C16.5828 11.5288 16.5828 12.15 16.966 12.5332C17.349 12.9163 17.9702 12.9163 18.3534 12.5332L21.2965 9.5901C21.3193 9.56741 21.3407 9.54366 21.3611 9.51881C21.3661 9.51273 21.3704 9.50619 21.3752 9.49997C21.3902 9.48094 21.4049 9.46184 21.4184 9.4417C21.4223 9.43581 21.4255 9.4296 21.4294 9.42364C21.4428 9.40258 21.456 9.38133 21.4679 9.35915C21.4702 9.35477 21.4721 9.35013 21.4744 9.34575C21.4868 9.32174 21.4987 9.29741 21.5091 9.27229C21.5104 9.26922 21.5113 9.26595 21.5126 9.26281C21.5232 9.23639 21.5331 9.20964 21.5415 9.1821C21.5426 9.17863 21.5432 9.17503 21.5441 9.1715C21.5521 9.14449 21.5593 9.11722 21.5649 9.08929C21.5665 9.08098 21.5672 9.07241 21.5687 9.06404C21.5728 9.04089 21.5768 9.01773 21.5791 8.99412C21.5825 8.96174 21.5841 8.92904 21.5841 8.89621C21.5841 8.86337 21.5825 8.83067 21.5791 8.79823C21.5768 8.77429 21.5727 8.75094 21.5687 8.72759C21.5672 8.71948 21.5665 8.71117 21.5649 8.70313C21.5593 8.67494 21.5521 8.6474 21.5441 8.62013C21.5431 8.61692 21.5425 8.61352 21.5415 8.61032C21.5331 8.58265 21.5232 8.55564 21.5124 8.52895C21.5112 8.52607 21.5104 8.523 21.5092 8.52012C21.4987 8.49481 21.4867 8.47035 21.4742 8.44621C21.4721 8.44196 21.4702 8.43751 21.468 8.43326C21.456 8.41096 21.4427 8.3895 21.429 8.36825C21.4254 8.36249 21.4222 8.35641 21.4184 8.35078C21.4049 8.33057 21.39 8.31134 21.3751 8.29225C21.3704 8.2861 21.3661 8.27962 21.3612 8.2736C21.3407 8.24882 21.3193 8.22501 21.2966 8.20231L18.3535 5.25922C18.1619 5.06758 17.9108 4.97183 17.6597 4.97183C17.4086 4.97183 17.1575 5.06758 16.966 5.25922C16.5829 5.64237 16.5829 6.26354 16.966 6.64669L18.2345 7.91511Z" fill="#3E4E6C"/>
<path d="M8.02546 16.9217C10.7035 16.9217 13.195 15.5931 14.6906 13.3679C14.9927 12.9183 14.8732 12.3087 14.4235 12.0064C13.9738 11.7043 13.3642 11.8237 13.0619 12.2735C11.9317 13.9554 10.0489 14.9595 8.02546 14.9595C4.68221 14.9595 1.96222 12.2395 1.96222 8.89624C1.96222 5.55293 4.68221 2.833 8.02545 2.833C10.0429 2.833 11.9226 3.83261 13.0538 5.50688C13.3572 5.95589 13.9669 6.07389 14.416 5.7706C14.8649 5.46724 14.9831 4.85739 14.6797 4.40845C13.1831 2.19326 10.6956 0.870812 8.02545 0.870812C3.60026 0.870812 2.84754e-05 4.47097 2.88623e-05 8.89624C2.92492e-05 13.3215 3.60026 16.9217 8.02546 16.9217Z" fill="#3E4E6C"/>
</svg>
